<svg viewBox="0 0 100 100" xmlns="http://www.w3.org/2000/svg" style="overflow:visible">
  <defs>
    <radialGradient id="bodyG" cx="38%" cy="30%" r="80%">
      <stop offset="0%" stop-color="#eef3f4"/>
      <stop offset="55%" stop-color="#ccd6d8"/>
      <stop offset="100%" stop-color="#aab6b9"/>
    </radialGradient>
    <radialGradient id="lensG" cx="40%" cy="35%" r="75%">
      <stop offset="0%" stop-color="#ecffff"/>
      <stop offset="55%" stop-color="#a6e6ee"/>
      <stop offset="100%" stop-color="#6cc3cf"/>
    </radialGradient>
    <linearGradient id="ringG" x1="0%" y1="0%" x2="100%" y2="100%">
      <stop offset="0%" stop-color="#67e8f9"/>
      <stop offset="50%" stop-color="#22d3ee"/>
      <stop offset="100%" stop-color="#2dd4bf"/>
    </linearGradient>
    <linearGradient id="legG" x1="0" y1="0" x2="0" y2="1">
      <stop offset="0%" stop-color="#dde4e6"/>
      <stop offset="100%" stop-color="#b3bfc2"/>
    </linearGradient>
    <filter id="ringGlow" x="-30%" y="-30%" width="160%" height="160%">
      <feGaussianBlur stdDeviation="1.8" result="b"/>
      <feMerge><feMergeNode in="b"/><feMergeNode in="SourceGraphic"/></feMerge>
    </filter>
    <clipPath id="frontClip"><rect x="0" y="49" width="100" height="51"/></clipPath>
  </defs>

  <ellipse cx="50" cy="95" rx="22" ry="3" fill="#0f172a" opacity="0.1"/>

  <g filter="url(#ringGlow)">
    <ellipse cx="50" cy="48" rx="47" ry="19" fill="none" stroke="url(#ringG)" stroke-width="3"
      transform="rotate(-18 50 48)" opacity="0.95"/>
  </g>

  <g stroke-linecap="round" fill="none">
    <g stroke="#2b4a54" stroke-width="7">
      <path d="M40 58 Q23 61 18 73"/><path d="M60 58 Q77 61 82 73"/>
      <path d="M42 64 Q28 71 24 85"/><path d="M58 64 Q72 71 76 85"/>
      <path d="M46 68 Q40 79 38 91"/><path d="M54 68 Q60 79 62 91"/>
    </g>
    <g stroke="url(#legG)" stroke-width="4">
      <path d="M40 58 Q23 61 18 73"/><path d="M60 58 Q77 61 82 73"/>
      <path d="M42 64 Q28 71 24 85"/><path d="M58 64 Q72 71 76 85"/>
      <path d="M46 68 Q40 79 38 91"/><path d="M54 68 Q60 79 62 91"/>
    </g>
  </g>

  <ellipse cx="50" cy="46" rx="31" ry="29" fill="url(#bodyG)" stroke="#2b4a54" stroke-width="2.6"/>
  <ellipse cx="38" cy="31" rx="12" ry="7" fill="#ffffff" opacity="0.35"/>

  <path d="M22 50 Q23 66 40 68 Q33 56 22 50 Z" fill="#9fe0bd" opacity="0.9"/>
  <path d="M68 58 Q78 58 80 47 Q72 51 68 58 Z" fill="#9fe0bd" opacity="0.75"/>
  <path d="M54 22 Q70 18 79 31 Q66 29 54 22 Z" fill="#9fe0bd" opacity="0.6"/>

  <g stroke="#2e8f6a" stroke-width="1.2" fill="none" stroke-linecap="round">
    <rect x="60.5" y="25" width="7" height="7" rx="1.2"/>
    <path d="M67.5 28 H73"/><path d="M64 25 V20.5"/><path d="M60.5 31.5 H55.5"/><path d="M67.5 31.5 L71 35"/>
  </g>
  <g fill="#2e8f6a">
    <circle cx="73.6" cy="28" r="1.1"/><circle cx="64" cy="20" r="1.1"/>
    <circle cx="55" cy="31.5" r="1.1"/><circle cx="71.4" cy="35.4" r="1.1"/>
    <circle cx="64" cy="28.5" r="1.2"/>
  </g>

  <circle cx="44" cy="27" r="1.5" fill="#2b4a54"/>
  <circle cx="56" cy="27" r="1.5" fill="#2b4a54"/>

  <path d="M48 45 H52" stroke="#2b4a54" stroke-width="3.2" stroke-linecap="round"/>
  <circle cx="38" cy="46" r="12" fill="url(#lensG)" stroke="#2b4a54" stroke-width="3.4"/>
  <circle cx="62" cy="46" r="12" fill="url(#lensG)" stroke="#2b4a54" stroke-width="3.4"/>
  <circle cx="39" cy="48" r="6.5" fill="#19323b"/>
  <circle cx="61" cy="48" r="6.5" fill="#19323b"/>
  <circle cx="36.6" cy="45.4" r="2.4" fill="#ffffff"/><circle cx="58.6" cy="45.4" r="2.4" fill="#ffffff"/>
  <circle cx="41.4" cy="50.6" r="1.3" fill="#ffffff"/><circle cx="63.4" cy="50.6" r="1.3" fill="#ffffff"/>
  <circle cx="33.5" cy="41.5" r="1.4" fill="#ffffff" opacity="0.85"/><circle cx="57.5" cy="41.5" r="1.4" fill="#ffffff" opacity="0.85"/>
  <circle cx="43.5" cy="42.5" r="1" fill="#ffffff" opacity="0.7"/><circle cx="65.5" cy="42.5" r="1" fill="#ffffff" opacity="0.7"/>

  <path d="M45 60 Q50 65 55 60" fill="none" stroke="#2b4a54" stroke-width="2" stroke-linecap="round"/>

  <g filter="url(#ringGlow)" clip-path="url(#frontClip)">
    <ellipse cx="50" cy="48" rx="47" ry="19" fill="none" stroke="url(#ringG)" stroke-width="3"
      transform="rotate(-18 50 48)"/>
  </g>
</svg>
